<svg width="40" height="40" viewBox="0 0 40 40" fill="none" xmlns="http://www.w3.org/2000/svg">
<g clip-path="url(#clip0_613_1032)">
<g clip-path="url(#clip1_613_1032)">
<rect width="38.9916" height="38.9915" transform="translate(0.779785 0.779785)" fill="white"/>
<path d="M31.6341 18.0962C25.4446 14.4205 15.2349 14.0825 9.32621 15.8758C8.37732 16.1638 7.37388 15.6279 7.08645 14.6793C6.79885 13.7298 7.33393 12.7271 8.28353 12.4387C15.0664 10.3798 26.3418 10.7774 33.4674 15.0072C34.3208 15.514 34.6008 16.6162 34.0949 17.4682C33.5887 18.3216 32.4855 18.6029 31.6341 18.0962ZM31.4315 23.5406C30.9972 24.2453 30.0759 24.4663 29.3722 24.0336C24.2119 20.8617 16.3433 19.9428 10.2383 21.7959C9.44659 22.0352 8.61037 21.5888 8.36989 20.7986C8.13135 20.0069 8.57795 19.1722 9.36821 18.9315C16.3423 16.8152 25.0121 17.8403 30.9389 21.4824C31.6426 21.9159 31.8641 22.8376 31.4315 23.5406ZM29.0819 28.7693C28.7368 29.3352 28.0001 29.5124 27.4362 29.1675C22.9271 26.4117 17.2516 25.7893 10.5676 27.3159C9.92352 27.4636 9.28159 27.06 9.1347 26.416C8.98717 25.7721 9.38926 25.1301 10.0348 24.9831C17.3492 23.311 23.6235 24.0307 28.6847 27.1234C29.249 27.468 29.4267 28.2052 29.0819 28.7693ZM20.2757 1.07345C9.67086 1.07345 1.07373 9.67039 1.07373 20.275C1.07373 30.8808 9.67086 39.4771 20.2757 39.4771C30.8807 39.4771 39.4774 30.8808 39.4774 20.275C39.4774 9.67039 30.8807 1.07345 20.2757 1.07345Z" fill="#1ED760"/>
</g>
</g>
<defs>
<clipPath id="clip0_613_1032">
<rect width="40" height="39.7713" rx="19.8857" fill="white"/>
</clipPath>
<clipPath id="clip1_613_1032">
<rect width="38.9916" height="38.9915" fill="white" transform="translate(0.779785 0.779785)"/>
</clipPath>
</defs>
</svg>
