<svg width="17" height="17" viewBox="0 0 17 17" fill="none" xmlns="http://www.w3.org/2000/svg">
<g clip-path="url(#clip0_572_1733)">
<path d="M12.8518 15.8579C14.3435 13.5577 15.1228 10.8683 15.0919 8.12686C15.0609 5.38547 14.2211 2.71426 12.6778 0.448338C12.6409 0.394665 12.5938 0.348785 12.5392 0.313318C12.4846 0.277851 12.4235 0.253491 12.3594 0.24163C12.2301 0.217674 12.0965 0.24608 11.9881 0.320598C11.8797 0.395117 11.8054 0.509644 11.7814 0.638985C11.7575 0.768326 11.7859 0.901886 11.8604 1.01028C13.2923 3.11509 14.0712 5.59567 14.0996 8.14122C14.128 10.6868 13.4045 13.1841 12.0198 15.3203C11.9511 15.4306 11.9285 15.5635 11.9568 15.6903C11.9852 15.8171 12.0622 15.9277 12.1714 15.9982C12.2805 16.0688 12.413 16.0936 12.5403 16.0673C12.6676 16.0411 12.7794 15.9659 12.8518 15.8579Z" fill="white"/>
<path d="M11.5364 8.19105C11.5208 6.09934 10.867 4.06224 9.66253 2.35206C9.57864 2.27486 9.47068 2.22896 9.35687 2.22211C9.24307 2.21526 9.13039 2.24788 9.03784 2.31446C8.94529 2.38104 8.87854 2.47751 8.84885 2.58758C8.81916 2.69766 8.82835 2.81461 8.87487 2.9187C9.95006 4.462 10.5341 6.29404 10.5505 8.17488C10.5669 10.0557 10.0149 11.8977 8.96676 13.4595C8.90563 13.5683 8.88788 13.6963 8.91705 13.8177C8.94622 13.9391 9.02016 14.045 9.12408 14.1142C9.22799 14.1834 9.35421 14.2109 9.47749 14.191C9.60076 14.1712 9.71198 14.1055 9.7889 14.0071C10.9439 12.2887 11.553 10.2615 11.5364 8.19105Z" fill="white"/>
<path d="M7.98006 8.22195C7.96523 6.79545 7.49495 5.41102 6.63783 4.27065C6.5563 4.17453 6.44119 4.11311 6.31596 4.09889C6.19073 4.08467 6.06478 4.11873 5.96378 4.19412C5.86277 4.26951 5.7943 4.38056 5.77232 4.50467C5.75033 4.62878 5.77648 4.7566 5.84543 4.8621C6.57394 5.83133 6.976 7.00678 6.99369 8.21913C7.01138 9.43149 6.64379 10.6182 5.94387 11.6082C5.89493 11.6599 5.85771 11.7215 5.83473 11.7889C5.81174 11.8562 5.80354 11.9278 5.81069 11.9986C5.81783 12.0694 5.84015 12.1378 5.87612 12.1992C5.91209 12.2606 5.96088 12.3136 6.01915 12.3544C6.07742 12.3953 6.14381 12.4231 6.2138 12.436C6.28379 12.4489 6.35574 12.4466 6.42474 12.4291C6.49375 12.4117 6.55819 12.3797 6.61369 12.3351C6.66918 12.2905 6.71442 12.2345 6.74633 12.1709C7.56404 11.0178 7.9959 9.63549 7.98006 8.22195Z" fill="white"/>
<path d="M4.74995 8.22559C4.74653 7.83372 4.62699 7.45166 4.40643 7.12773C4.18588 6.80379 3.87422 6.55254 3.51087 6.40573C3.14752 6.25892 2.7488 6.22316 2.36512 6.30296C1.98144 6.38276 1.63004 6.57454 1.35536 6.85405C1.08068 7.13357 0.895053 7.48825 0.821952 7.87326C0.748852 8.25827 0.791562 8.65631 0.944681 9.01705C1.0978 9.37779 1.35445 9.68502 1.68218 9.89989C2.00991 10.1148 2.394 10.2276 2.78587 10.2242C3.31136 10.2196 3.8135 10.0065 4.18184 9.63168C4.55017 9.25686 4.75453 8.75108 4.74995 8.22559ZM1.77792 8.2515C1.77622 8.05557 1.83265 7.86352 1.94009 7.69966C2.04752 7.53579 2.20114 7.40747 2.38151 7.33091C2.56187 7.25435 2.76089 7.23299 2.9534 7.26954C3.14591 7.30609 3.32325 7.39891 3.463 7.53625C3.60276 7.67359 3.69865 7.84929 3.73855 8.04113C3.77845 8.23296 3.76057 8.43233 3.68717 8.614C3.61376 8.79568 3.48814 8.95151 3.32617 9.06178C3.1642 9.17206 2.97317 9.23183 2.77723 9.23354C2.51449 9.23583 2.2616 9.13365 2.07419 8.94948C1.88679 8.76532 1.78021 8.51424 1.77792 8.2515Z" fill="white"/>
</g>
<defs>
<clipPath id="clip0_572_1733">
<rect width="16" height="16" fill="white" transform="translate(17 0.106717) scale(1.05583) rotate(90.3624)"/>
</clipPath>
</defs>
</svg>
