<svg width="30" height="23" viewBox="0 0 30 23" fill="none" xmlns="http://www.w3.org/2000/svg">
<g clip-path="url(#clip0_572_1706)">
<path d="M5.45359 22.4837V20.9881C5.45359 20.4148 5.09343 20.0409 4.47602 20.0409C4.16731 20.0409 3.83288 20.1406 3.60135 20.4646C3.42127 20.1905 3.16401 20.0409 2.77813 20.0409C2.52087 20.0409 2.26362 20.1157 2.05782 20.3899V20.0908H1.51758V22.4837H2.05782V21.1626C2.05782 20.7388 2.28934 20.5394 2.6495 20.5394C3.00966 20.5394 3.18974 20.7638 3.18974 21.1626V22.4837H3.72998V21.1626C3.72998 20.7388 3.98723 20.5394 4.32166 20.5394C4.68182 20.5394 4.8619 20.7638 4.8619 21.1626V22.4837H5.45359ZM13.4542 20.0908H12.5796V19.3679H12.0393V20.0908H11.5505V20.5644H12.0393V21.6611C12.0393 22.2095 12.2709 22.5335 12.8883 22.5335C13.1198 22.5335 13.3771 22.4587 13.5571 22.359L13.4028 21.9104C13.2484 22.0101 13.0684 22.035 12.9397 22.035C12.6825 22.035 12.5796 21.8854 12.5796 21.6362V20.5644H13.4542V20.0908ZM18.0334 20.0409C17.7247 20.0409 17.5189 20.1905 17.3903 20.3899V20.0908H16.85V22.4837H17.3903V21.1377C17.3903 20.7388 17.5703 20.5145 17.9048 20.5145C18.0077 20.5145 18.1363 20.5394 18.2392 20.5644L18.3935 20.0658C18.2906 20.0409 18.1363 20.0409 18.0334 20.0409ZM11.1132 20.2902C10.856 20.1157 10.4958 20.0409 10.1099 20.0409C9.4925 20.0409 9.08089 20.34 9.08089 20.8136C9.08089 21.2124 9.3896 21.4368 9.92984 21.5115L10.1871 21.5365C10.4701 21.5863 10.6244 21.6611 10.6244 21.7857C10.6244 21.9602 10.4186 22.0849 10.0585 22.0849C9.69831 22.0849 9.41533 21.9602 9.23525 21.8356L8.97799 22.2344C9.26097 22.4338 9.64686 22.5335 10.0327 22.5335C10.7531 22.5335 11.1647 22.2095 11.1647 21.7608C11.1647 21.3371 10.8302 21.1127 10.3157 21.038L10.0585 21.013C9.82693 20.9881 9.64686 20.9382 9.64686 20.7887C9.64686 20.6142 9.82693 20.5145 10.1099 20.5145C10.4186 20.5145 10.7273 20.6391 10.8817 20.7139L11.1132 20.2902ZM25.4681 20.0409C25.1594 20.0409 24.9536 20.1905 24.8249 20.3899V20.0908H24.2847V22.4837H24.8249V21.1377C24.8249 20.7388 25.005 20.5145 25.3394 20.5145C25.4424 20.5145 25.571 20.5394 25.6739 20.5644L25.8282 20.0658C25.7253 20.0409 25.571 20.0409 25.4681 20.0409ZM18.5736 21.2872C18.5736 22.0101 19.0881 22.5335 19.8856 22.5335C20.2458 22.5335 20.503 22.4587 20.7603 22.2593L20.503 21.8356C20.2972 21.9851 20.0914 22.0599 19.8599 22.0599C19.4226 22.0599 19.1139 21.7608 19.1139 21.2872C19.1139 20.8385 19.4226 20.5394 19.8599 20.5145C20.0914 20.5145 20.2972 20.5893 20.503 20.7388L20.7603 20.3151C20.503 20.1157 20.2458 20.0409 19.8856 20.0409C19.0881 20.0409 18.5736 20.5644 18.5736 21.2872ZM23.5644 21.2872V20.0908H23.0241V20.3899C22.8441 20.1655 22.5868 20.0409 22.2524 20.0409C21.5578 20.0409 21.0176 20.5644 21.0176 21.2872C21.0176 22.0101 21.5578 22.5335 22.2524 22.5335C22.6125 22.5335 22.8698 22.4089 23.0241 22.1846V22.4837H23.5644V21.2872ZM21.5835 21.2872C21.5835 20.8635 21.8665 20.5145 22.3296 20.5145C22.7669 20.5145 23.0756 20.8385 23.0756 21.2872C23.0756 21.711 22.7669 22.0599 22.3296 22.0599C21.8665 22.035 21.5835 21.711 21.5835 21.2872ZM15.1264 20.0409C14.4061 20.0409 13.8916 20.5394 13.8916 21.2872C13.8916 22.035 14.4061 22.5335 15.1521 22.5335C15.5123 22.5335 15.8724 22.4338 16.1554 22.2095L15.8982 21.8356C15.6924 21.9851 15.4351 22.0849 15.1779 22.0849C14.8434 22.0849 14.509 21.9353 14.4318 21.5115H16.2583V21.3121C16.2841 20.5394 15.821 20.0409 15.1264 20.0409ZM15.1264 20.4896C15.4608 20.4896 15.6924 20.689 15.7438 21.0629H14.4575C14.509 20.7388 14.7405 20.4896 15.1264 20.4896ZM28.5294 21.2872V19.1436H27.9892V20.3899C27.8091 20.1655 27.5518 20.0409 27.2174 20.0409C26.5228 20.0409 25.9826 20.5644 25.9826 21.2872C25.9826 22.0101 26.5228 22.5335 27.2174 22.5335C27.5776 22.5335 27.8348 22.4089 27.9892 22.1846V22.4837H28.5294V21.2872ZM26.5485 21.2872C26.5485 20.8635 26.8315 20.5145 27.2946 20.5145C27.7319 20.5145 28.0406 20.8385 28.0406 21.2872C28.0406 21.711 27.7319 22.0599 27.2946 22.0599C26.8315 22.035 26.5485 21.711 26.5485 21.2872ZM8.48921 21.2872V20.0908H7.94897V20.3899C7.76889 20.1655 7.51163 20.0409 7.1772 20.0409C6.48261 20.0409 5.94237 20.5644 5.94237 21.2872C5.94237 22.0101 6.48261 22.5335 7.1772 22.5335C7.53736 22.5335 7.79462 22.4089 7.94897 22.1846V22.4837H8.48921V21.2872ZM6.48261 21.2872C6.48261 20.8635 6.76559 20.5145 7.22865 20.5145C7.66599 20.5145 7.97469 20.8385 7.97469 21.2872C7.97469 21.711 7.66599 22.0599 7.22865 22.0599C6.76559 22.035 6.48261 21.711 6.48261 21.2872Z" fill="white"/>
<path d="M19.0371 1.91943H10.9336V16.0277H19.0371V1.91943Z" fill="#FF5F00"/>
<path d="M11.4479 8.97346C11.4479 6.10694 12.8371 3.56446 14.9723 1.91932C13.403 0.722862 11.4221 0 9.2612 0C4.14181 0 0 4.01313 0 8.97346C0 13.9338 4.14181 17.9469 9.2612 17.9469C11.4221 17.9469 13.403 17.2241 14.9723 16.0276C12.8371 14.4074 11.4479 11.84 11.4479 8.97346Z" fill="#EB001B"/>
<path d="M29.9703 8.97345C29.9703 13.9338 25.8285 17.9469 20.7091 17.9469C18.5482 17.9469 16.5673 17.224 14.998 16.0276C17.159 14.3825 18.5224 11.84 18.5224 8.97345C18.5224 6.10693 17.1333 3.56446 14.998 1.91932C16.5673 0.722862 18.5482 0 20.7091 0C25.8285 0 29.9703 4.03805 29.9703 8.97345Z" fill="#F79E1B"/>
</g>
<defs>
<clipPath id="clip0_572_1706">
<rect width="30" height="22.5958" fill="white"/>
</clipPath>
</defs>
</svg>
