<svg width="24" height="24" viewBox="0 0 24 24" fill="none" xmlns="http://www.w3.org/2000/svg">
<path d="M22 19.8C22 20.4627 21.4627 21 20.8 21H3.2C2.53726 21 2 20.4627 2 19.8V4C2 3.44772 2.44772 3 3 3V3C3.55228 3 4 3.44772 4 4V18C4 18.5523 4.44772 19 5 19V19C5.55228 19 6 18.5523 6 18V11.2C6 10.5373 6.53726 10 7.2 10H8.8C9.46274 10 10 10.5373 10 11.2V18C10 18.5523 10.4477 19 11 19V19C11.5523 19 12 18.5523 12 18V7.2C12 6.53726 12.5373 6 13.2 6H14.8C15.4627 6 16 6.53726 16 7.2V18C16 18.5523 16.4477 19 17 19V19C17.5523 19 18 18.5523 18 18V15.2C18 14.5373 18.5373 14 19.2 14H20.8C21.4627 14 22 14.5373 22 15.2V19.8Z" fill="#0E0E0E"/>
</svg>
