<svg width="24" height="24" viewBox="0 0 24 24" fill="none" xmlns="http://www.w3.org/2000/svg">
<g clip-path="url(#clip0_761_1051)">
<path d="M17.6512 4.16624C16.0714 2.81062 14.1922 -0.0116312 12.0739 0.0337438C9.49798 0.0888688 8.46973 3.10199 6.58948 4.73099C6.1406 5.12099 7.55323 5.37562 7.87535 5.09624C8.84735 4.25549 10.9339 0.324744 12.1706 0.857244C13.7437 1.53524 15.024 3.37987 16.3654 4.53187C16.6882 4.80974 18.1009 4.55212 17.6512 4.16662" fill="#30434A"/>
<path d="M7.54871 19.9949C7.81571 20.3778 8.30621 20.3965 8.61896 20.7108C9.23209 21.3261 9.42296 22.0825 9.19084 22.9758C9.64459 23.1464 10.0893 23.2743 10.4913 23.0868C10.9286 21.0456 9.77246 19.3461 8.18921 18.9145C7.58959 18.7533 7.01359 19.2216 7.54871 19.9938" fill="#29ABE2"/>
<path d="M4.70335 20.7112C4.46335 20.986 4.52597 21.427 4.3441 21.7379C3.98897 22.3458 3.46547 22.5903 2.77285 22.4695C2.71922 22.8899 2.69372 23.3005 2.8936 23.644C4.45547 23.8394 5.5186 22.6402 5.5921 21.1792C5.61835 20.6283 5.18485 20.1569 4.70335 20.7112Z" fill="#04A69C"/>
<path d="M2.46568 16.7603C2.46043 16.3962 2.12181 16.1086 2.04981 15.7549C1.90993 15.0653 2.13831 14.5343 2.73493 14.1634C2.49381 13.8124 2.23956 13.4896 1.86193 13.3677C0.567055 14.2628 0.571555 15.8671 1.49068 17.0033C1.83831 17.4323 2.47431 17.4949 2.46568 16.7603Z" fill="#D13852"/>
<path d="M9.98369 3.25698C8.59094 1.56161 4.79669 0.609482 2.66069 1.30811C0.51419 2.00936 -0.335185 5.75673 0.250565 8.02961C0.658565 9.60986 3.10694 9.42386 4.26832 9.20186C7.24132 8.63561 10.8976 4.36961 9.98369 3.25698Z" fill="#F4C778"/>
<path d="M4.31062 4.42568C1.98824 5.69881 0.538119 7.52206 1.07399 8.49818C1.60799 9.47356 3.92587 9.23131 6.24749 7.95781C8.571 6.68431 10.0012 4.51868 9.46612 3.54331C8.92987 2.56793 6.63337 3.15106 4.31062 4.42568Z" fill="#835423"/>
<path d="M6.26552 10.7806C5.86164 11.0817 5.79714 11.7204 5.45589 12.0916C4.78614 12.8172 4.01664 12.9729 3.14814 12.5604C2.93777 13.1304 2.76939 13.6966 2.91752 14.2475C4.90314 15.0725 6.70127 13.772 7.27877 11.7511C7.49589 10.9872 7.08264 10.1739 6.26552 10.7806ZM18.5063 11.4972C18.8899 11.9337 19.5994 11.9307 20.0513 12.2844C20.934 12.977 21.2089 13.8579 20.8695 14.9244C21.5235 15.1017 22.1651 15.2292 22.752 14.9866C23.3936 12.5615 21.729 10.6209 19.4393 10.1949C18.5723 10.0332 17.7345 10.6167 18.507 11.4984" fill="#04A69C"/>
<path d="M17.8848 12.5351C16.6687 12.7695 15.9382 13.7588 15.8396 14.9681C15.7837 15.6503 17.067 16.1636 16.3916 16.5203C15.993 16.7306 15.6738 17.1221 15.5013 17.5328C15.2883 18.0394 15.2148 18.3979 15.6352 18.8183C15.6956 18.8779 16.5817 19.422 16.5506 19.4565C16.3314 19.7024 16.1319 19.9653 15.954 20.2425C15.045 21.6713 15.3056 23.0764 16.8311 23.7889C17.19 23.9543 17.9167 22.6661 17.6403 22.5375C16.9668 22.2229 15.5497 21.3473 16.4951 20.3171C16.7171 20.0764 16.917 19.8285 17.0456 19.5236C17.3958 18.6975 17.2533 17.9723 16.4441 17.5665C16.0833 17.3869 16.4715 17.4701 16.719 17.2114C16.9492 16.9706 17.1615 16.6568 17.2871 16.3474C17.4045 16.0583 17.5541 15.489 17.4191 15.1703C17.2571 14.7915 16.3485 13.9781 17.2121 13.8113C17.6268 13.7321 18.1282 12.4886 17.8848 12.5351ZM13.95 10.275C11.8391 9.48527 11.469 11.0066 11.2601 12.7545C11.3055 12.3724 9.36634 12.8888 9.09897 13.1006C8.41234 13.6474 8.26909 15.2033 7.33984 14.7731C6.54784 14.4053 5.90022 14.7765 5.34334 15.3904C5.10347 15.6582 4.93513 15.9822 4.85397 16.3324C4.75234 16.77 5.20309 17.7154 4.52959 17.3044C2.44197 16.0301 1.47259 19.8791 1.42047 20.9978C1.41147 21.1954 2.46147 20.4503 2.48172 20.0201C2.52072 19.1741 2.64409 17.8676 3.82722 18.5903C4.14184 18.7815 4.19097 18.7388 4.53559 18.6491C4.99159 18.5314 5.44084 17.8991 5.66434 17.5324C5.96247 17.0426 5.77347 15.6694 6.33822 15.8756C7.08822 16.1505 7.66347 16.2593 8.31897 15.6559C8.71834 15.2888 8.98084 14.8924 9.06897 14.3625C9.24559 13.3181 10.3132 14.2571 10.9515 13.8941C11.484 13.5908 11.8023 13.1183 12.0877 12.5981C12.261 12.2824 12.3086 11.9374 12.3502 11.5841C12.4278 10.9425 11.3418 10.7775 12.9476 11.3775C13.3713 11.5365 14.1423 10.3463 13.9492 10.275" fill="#EACB49"/>
<path d="M6.95933 9.59698C8.07983 9.06898 9.25283 9.43611 10.046 10.3556C10.4933 10.8742 9.75871 12.0454 10.5147 11.9351C10.9606 11.8699 11.4492 11.9985 11.8306 12.2276C12.3012 12.5107 12.572 12.7571 12.4797 13.3444C12.467 13.4287 12.071 14.391 12.1175 14.4007C12.4393 14.4693 12.7551 14.5637 13.0617 14.6831C14.6397 15.3004 15.257 16.5896 14.4447 18.0656C14.2527 18.4121 12.9061 17.7986 13.0531 17.5324C13.412 16.8806 14.0405 15.3379 12.6695 15.0645C12.3485 15.0004 12.0402 14.9175 11.7575 14.748C10.9868 14.2864 10.6748 13.6155 11.0888 12.8119C11.2745 12.4537 11.0097 12.7507 10.6572 12.6874C10.3295 12.6292 9.97321 12.5006 9.68933 12.3244C9.42458 12.1601 8.96708 11.7881 8.88908 11.4506C8.79608 11.0494 9.05071 9.85685 8.25421 10.2322C7.87321 10.4119 6.73546 9.70348 6.95933 9.59773M22.0403 18.7466C21.62 18.2752 21.0503 18.4339 20.6105 18.7541C20.6127 18.6915 20.5891 18.6457 20.5115 18.6427C20.2291 18.6319 19.9163 19.0095 19.7701 19.2067C19.3092 19.8292 19.109 20.6745 19.8113 21.2096C20.5688 21.7856 21.5408 21.0007 21.9995 20.421C22.4063 19.9069 22.4948 19.2559 22.0403 18.7466ZM20.4601 19.6691C20.4522 19.6485 20.4533 19.6267 20.4477 19.6065C20.4815 19.6057 20.5482 19.5896 20.5973 19.5949C20.7323 19.6076 20.8478 19.6852 20.9517 19.7674C21.095 19.8802 21.2097 20.0539 21.2633 20.2387C21.1035 20.2381 20.9472 20.192 20.8126 20.106C20.6555 20.0051 20.5302 19.8397 20.4601 19.6691Z" fill="#D13852"/>
<path d="M11.0595 16.3268C10.6526 15.801 10.0909 16.053 9.65477 16.4306C8.9449 16.7449 8.22677 17.5901 8.6539 18.3169C9.12152 19.1149 10.1093 18.8464 10.6601 18.3229C11.2271 17.7848 11.5909 17.0108 11.0595 16.3249" fill="#EACB49"/>
<path d="M17.9834 16.4809C17.3842 15.4898 12.6584 9.51788 16.4328 9.22463C17.0193 9.17963 17.7813 8.62463 16.7587 8.70375C14.4078 8.88563 13.0732 9.90975 13.8757 12.3866C14.2844 13.6493 15.0929 14.7446 15.8966 15.7766C16.8157 16.9628 17.8616 20.1754 14.6482 19.7494C13.1242 19.5473 11.9756 16.6594 13.9282 17.2751C14.2657 17.3813 15.5733 16.9781 15.1676 16.8503C13.9616 16.47 11.9373 16.3016 11.3707 17.7431C10.5348 19.8686 14.1003 20.3906 15.3191 20.2875C17.1907 20.1289 19.2108 18.5063 17.9834 16.4794" fill="#29ABE2"/>
<path d="M13.9539 3.25681C15.347 1.56143 19.1409 0.609308 21.2769 1.30831C23.423 2.00956 24.272 5.75693 23.687 8.02981C23.2786 9.61006 20.8302 9.42406 19.6689 9.20206C16.6959 8.63543 13.04 4.36943 13.9539 3.25681Z" fill="#F4C778"/>
<path d="M19.6274 4.42568C21.949 5.69881 23.3999 7.52206 22.864 8.49818C22.3304 9.47356 20.0114 9.23131 17.6901 7.95781C15.3666 6.68431 13.9364 4.51868 14.4715 3.54331C15.0078 2.56793 17.3031 3.15106 19.6274 4.42568Z" fill="#835423"/>
</g>
<defs>
<clipPath id="clip0_761_1051">
<rect width="24" height="24" fill="white"/>
</clipPath>
</defs>
</svg>
